name C:/MyDriveSym/Projects/mobilecap/Data\Session20210910_0002\mocap\ForceDataProcessed\walking2_forces.mot
datacolumns 19
datarows 12
range 0.33950000 0.34500000
endheader 
time	R_ground_force_vx	R_ground_force_vy	R_ground_force_vz	R_ground_force_px	R_ground_force_py	R_ground_force_pz	R_ground_torque_x	R_ground_torque_y	R_ground_torque_z	L_ground_force_vx	L_ground_force_vy	L_ground_force_vz	L_ground_force_px	L_ground_force_py	L_ground_force_pz	L_ground_torque_x	L_ground_torque_y	L_ground_torque_z	
          0.33950000	        -12.69218200	        668.78115200	        -34.22624800	          0.20141500	          0.00600000	         -0.19538500	          0.00000000	         -1.89490200	          0.00000000	          0.00000000	          0.00000000	          0.00000000	          0.68417800	          0.00000000	         -0.35480800	          0.00000000	          0.00000000	          0.00000000	
          0.34000000	        -12.45166000	        668.85153300	        -34.24747300	          0.20157800	          0.00600000	         -0.19536000	          0.00000000	         -1.90908800	          0.00000000	          0.00000000	          0.00000000	          0.00000000	          0.68417800	          0.00000000	         -0.35480800	          0.00000000	          0.00000000	          0.00000000	
          0.34050000	        -12.21109600	        668.93089300	        -34.26967900	          0.20174100	          0.00600000	         -0.19533500	          0.00000000	         -1.92332700	          0.00000000	          0.00000000	          0.00000000	          0.00000000	          0.68417800	          0.00000000	         -0.35480800	          0.00000000	          0.00000000	          0.00000000	
          0.34100000	        -11.97047700	        669.01922100	        -34.29286800	          0.20190400	          0.00600000	         -0.19531100	          0.00000000	         -1.93762000	          0.00000000	          0.00000000	          0.00000000	          0.00000000	          0.68417800	          0.00000000	         -0.35480800	          0.00000000	          0.00000000	          0.00000000	
          0.34150000	        -11.72978700	        669.11651000	        -34.31704100	          0.20206600	          0.00600000	         -0.19528700	          0.00000000	         -1.95196700	          0.00000000	          0.00000000	          0.00000000	          0.00000000	          0.68417800	          0.00000000	         -0.35480800	          0.00000000	          0.00000000	          0.00000000	
          0.34200000	        -11.48901300	        669.22275200	        -34.34220000	          0.20222800	          0.00600000	         -0.19526200	          0.00000000	         -1.96636700	          0.00000000	          0.00000000	          0.00000000	          0.00000000	          0.68417800	          0.00000000	         -0.35480800	          0.00000000	          0.00000000	          0.00000000	
          0.34250000	        -11.24814000	        669.33793600	        -34.36834500	          0.20239000	          0.00600000	         -0.19523800	          0.00000000	         -1.98082000	          0.00000000	          0.00000000	          0.00000000	          0.00000000	          0.68417800	          0.00000000	         -0.35480800	          0.00000000	          0.00000000	          0.00000000	
          0.34300000	        -11.00715400	        669.46205500	        -34.39547800	          0.20255200	          0.00600000	         -0.19521400	          0.00000000	         -1.99532600	          0.00000000	          0.00000000	          0.00000000	          0.00000000	          0.68417800	          0.00000000	         -0.35480800	          0.00000000	          0.00000000	          0.00000000	
          0.34350000	        -10.76604100	        669.59509900	        -34.42359900	          0.20271400	          0.00600000	         -0.19519000	          0.00000000	         -2.00988600	          0.00000000	          0.00000000	          0.00000000	          0.00000000	          0.68417800	          0.00000000	         -0.35480800	          0.00000000	          0.00000000	          0.00000000	
          0.34400000	        -10.52478600	        669.73705900	        -34.45271000	          0.20287600	          0.00600000	         -0.19516600	          0.00000000	         -2.02449900	          0.00000000	          0.00000000	          0.00000000	          0.00000000	          0.68417800	          0.00000000	         -0.35480800	          0.00000000	          0.00000000	          0.00000000	
          0.34450000	        -10.28337500	        669.88792700	        -34.48281300	          0.20303800	          0.00600000	         -0.19514300	          0.00000000	         -2.03916400	          0.00000000	          0.00000000	          0.00000000	          0.00000000	          0.68417800	          0.00000000	         -0.35480800	          0.00000000	          0.00000000	          0.00000000	
          0.34500000	        -10.04179400	        670.04769300	        -34.51390700	          0.20319900	          0.00600000	         -0.19511900	          0.00000000	         -2.05388300	          0.00000000	          0.00000000	          0.00000000	          0.00000000	          0.68417800	          0.00000000	         -0.35480800	          0.00000000	          0.00000000	          0.00000000	
